<svg width="64" height="64" viewBox="0 0 64 64" fill="none" xmlns="http://www.w3.org/2000/svg">
    <path d="M36.2721 39.2721C32.8964 35.8964 28.3181 34 23.5442 34H4L17.921 47.225C21.8239 50.9327 27.0015 53 32.3848 53H50L36.2721 39.2721Z" fill="#888"/>
    <path d="M50.9226 40.2927C47.143 36.277 41.8731 34 36.3585 34H24L35.9301 45.2673C39.8283 48.9489 44.9872 51 50.3492 51H61L50.9226 40.2927Z" fill="#666"/>
    <path d="M24 34C28.6064 34.1182 33.0056 36.0055 36.2722 39.2721L47.851 50.8509C43.4036 50.3181 39.2184 48.3728 35.9301 45.2673L24 34Z" fill="#000"/>
    <path d="M24.0691 20.5232C28.521 16.3331 34.4042 14 40.5179 14H63L50.3318 25.923C47.5493 28.5418 43.8724 30 40.0513 30H14L24.0691 20.5232Z" fill="#888"/>
    <path d="M12.3848 18.6152C17.2607 13.7393 23.8739 11 30.7696 11H47L31.0526 26.15C28.4507 28.6218 24.999 30 21.4101 30H1L12.3848 18.6152Z" fill="#666"/>
    <path d="M14 30H21.4101C24.999 30 28.4507 28.6218 31.0526 26.15L43.8421 14H40.5179C34.4042 14 28.521 16.3331 24.0691 20.5232L14 30Z" fill="#000"/>
</svg>
