<?xml version="1.0" encoding="utf-8"?>
<!-- Generator: Adobe Illustrator 18.1.1, SVG Export Plug-In . SVG Version: 6.00 Build 0)  -->
<!DOCTYPE svg PUBLIC "-//W3C//DTD SVG 1.1//EN" "http://www.w3.org/Graphics/SVG/1.1/DTD/svg11.dtd">
<svg version="1.1" id="Layer_1" xmlns="http://www.w3.org/2000/svg" xmlns:xlink="http://www.w3.org/1999/xlink" x="0px" y="0px"
	 viewBox="0 0 64 64" enable-background="new 0 0 64 64" xml:space="preserve">
<path fill-rule="evenodd" clip-rule="evenodd" fill="#1C66CB" d="M12.9,4h38.2C52.7,4,54,5.3,54,6.9v50.2c0,1.6-1.3,2.9-2.9,2.9
	H12.9c-1.6,0-2.9-1.3-2.9-2.9V6.9C10,5.3,11.3,4,12.9,4z"/>
<path fill-rule="evenodd" clip-rule="evenodd" fill="#FFFFFF" d="M13,6h38c0.6,0,1,0.4,1,1v50c0,0.6-0.4,1-1,1H13c-0.6,0-1-0.4-1-1
	V7C12,6.4,12.4,6,13,6z"/>
<g>
	<polygon fill="#1C66CB" points="31.5,39.8 38.1,42.7 45,28 38.4,25.1 	"/>
	<polygon fill="#1C66CB" points="31.6,48.3 37.5,44.4 30.9,41.5 	"/>
	<path fill="#1C66CB" d="M46.6,22.1L42,20c-0.6-0.2-1.3,0.1-1.6,0.9l-1.1,2.4l6.6,2.9l1.1-2.4C47.3,23.1,47.1,22.3,46.6,22.1z"/>
</g>
<g>
	<rect x="18" y="38" fill-rule="evenodd" clip-rule="evenodd" fill="#1C66CB" width="10" height="2"/>
	<rect x="18" y="32" fill-rule="evenodd" clip-rule="evenodd" fill="#1C66CB" width="12" height="2"/>
	<rect x="18" y="26" fill-rule="evenodd" clip-rule="evenodd" fill="#1C66CB" width="16" height="2"/>
	<rect x="18" y="20" fill-rule="evenodd" clip-rule="evenodd" fill="#1C66CB" width="18" height="2"/>
</g>
</svg>
