<?xml version="1.0" encoding="utf-8"?>
<!-- Generator: Adobe Illustrator 18.1.1, SVG Export Plug-In . SVG Version: 6.00 Build 0)  -->
<!DOCTYPE svg PUBLIC "-//W3C//DTD SVG 1.1//EN" "http://www.w3.org/Graphics/SVG/1.1/DTD/svg11.dtd">
<svg version="1.1" id="Layer_1" xmlns="http://www.w3.org/2000/svg" xmlns:xlink="http://www.w3.org/1999/xlink" x="0px" y="0px"
	 viewBox="0 0 64 64" enable-background="new 0 0 64 64" xml:space="preserve">
<path fill-rule="evenodd" clip-rule="evenodd" fill="#E7604C" d="M12.9,4h38.2C52.7,4,54,5.3,54,6.9v50.2c0,1.6-1.3,2.9-2.9,2.9
	H12.9c-1.6,0-2.9-1.3-2.9-2.9V6.9C10,5.3,11.3,4,12.9,4z"/>
<path fill-rule="evenodd" clip-rule="evenodd" fill="#FFFFFF" d="M13,6h38c0.6,0,1,0.4,1,1v50c0,0.6-0.4,1-1,1H13c-0.6,0-1-0.4-1-1
	V7C12,6.4,12.4,6,13,6z"/>
<path fill-rule="evenodd" clip-rule="evenodd" fill="#E7604C" d="M40,40v-8.2c4.3,0.5,7.7,3.9,8.3,8.2H40z M38,42h10.3
	c-0.4,4.9-4.4,8.7-9.4,8.7c-5.2,0-9.4-4.2-9.4-9.5c0-4.9,3.7-8.9,8.4-9.4V42z"/>
<g>
	<linearGradient id="SVGID_1_" gradientUnits="userSpaceOnUse" x1="41" y1="26" x2="27" y2="26">
		<stop  offset="0" style="stop-color:#FFFFFF"/>
		<stop  offset="1" style="stop-color:#E7604C"/>
	</linearGradient>
	<rect x="27" y="25" fill-rule="evenodd" clip-rule="evenodd" fill="url(#SVGID_1_)" width="14" height="2"/>
	<linearGradient id="SVGID_2_" gradientUnits="userSpaceOnUse" x1="41" y1="30" x2="29" y2="30">
		<stop  offset="0" style="stop-color:#FFFFFF"/>
		<stop  offset="1" style="stop-color:#E7604C"/>
	</linearGradient>
	<rect x="29" y="29" fill-rule="evenodd" clip-rule="evenodd" fill="url(#SVGID_2_)" width="12" height="2"/>
</g>
<path fill-rule="evenodd" clip-rule="evenodd" fill="#E7604C" d="M28.4,38H20V20h22v10.4c0.7,0.2,1.4,0.5,2,0.8V20h2v-4H16v4h2v18
	c0,0.8,1.2,2,2,2h8.1C28.1,39.3,28.2,38.6,28.4,38z"/>
<path fill-rule="evenodd" clip-rule="evenodd" fill="#E7604C" d="M27.1,21.7l1.6,4.1l4.3,0.5l-3.5,2.3l1.2,5.1l-3.7-3.3l-3.7,3.3
	l1.2-5.1l-3.5-2.3l4.3-0.5L27.1,21.7"/>
</svg>
