<?xml version="1.0" encoding="utf-8"?>
<!-- Generator: Adobe Illustrator 18.1.1, SVG Export Plug-In . SVG Version: 6.00 Build 0)  -->
<!DOCTYPE svg PUBLIC "-//W3C//DTD SVG 1.1//EN" "http://www.w3.org/Graphics/SVG/1.1/DTD/svg11.dtd">
<svg version="1.1" id="Layer_1" xmlns="http://www.w3.org/2000/svg" xmlns:xlink="http://www.w3.org/1999/xlink" x="0px" y="0px"
	 viewBox="0 0 64 64" enable-background="new 0 0 64 64" xml:space="preserve">
<path fill-rule="evenodd" clip-rule="evenodd" fill="#279B6E" d="M12.9,4h38.2C52.7,4,54,5.3,54,6.9v50.2c0,1.6-1.3,2.9-2.9,2.9
	H12.9c-1.6,0-2.9-1.3-2.9-2.9V6.9C10,5.3,11.3,4,12.9,4z"/>
<path fill-rule="evenodd" clip-rule="evenodd" fill="#FFFFFF" d="M13,6h38c0.6,0,1,0.4,1,1v50c0,0.6-0.4,1-1,1H13c-0.6,0-1-0.4-1-1
	V7C12,6.4,12.4,6,13,6z"/>
<path fill-rule="evenodd" clip-rule="evenodd" fill="#279B6E" d="M42,48V38h6v10H42z M34,28h6v20h-6V28z M26,34h6v14h-6V34z"/>
<path fill-rule="evenodd" clip-rule="evenodd" fill="#279B6E" d="M34,26v-2h-4v4h2v2h-2v2h-2v-2h-4v6h-8V16h20v6v2v2H34z M22,18h-4
	v4h4V18z M22,24h-4v4h4V24z M22,30h-4v4h4V30z M28,18h-4v4h4V18z M28,24h-4v4h4V24z M34,18h-4v4h4V18z"/>
</svg>
